<?xml version="1.0" encoding="utf-8"?>
<!-- Generator: Adobe Illustrator 22.0.0, SVG Export Plug-In . SVG Version: 6.00 Build 0)  -->
<svg version="1.1" xmlns="http://www.w3.org/2000/svg" xmlns:xlink="http://www.w3.org/1999/xlink" x="0px" y="0px"
	 viewBox="0 0 256 256" style="enable-background:new 0 0 256 256;" xml:space="preserve">
<style type="text/css">
	.st0{display:none;}
	.st1{display:inline;}
	.st2{fill:none;stroke:#6B1D1D;stroke-width:0.5;stroke-miterlimit:10;}
	.st3{fill:#3A312A;}
	.st4{fill:#87796F;}
	.st5{fill:#D5DE58;}
	.st6{fill:#695B51;}
	.st7{fill:#FCE8CB;}
	.st8{fill:#F16C7A;}
	.st9{fill:#8AC6DD;}
	.st10{fill:#DECAAD;}
	.st11{fill:#D6DF58;}
	.st12{fill-rule:evenodd;clip-rule:evenodd;fill:#FCE8CB;}
	.st13{fill:#F5978A;}
	.st14{fill:#D7E057;}
	.st15{fill-rule:evenodd;clip-rule:evenodd;fill:#87796F;}
	.st16{fill:#6CA8BF;}
	.st17{fill:#B9C239;}
	.st18{fill:#D34E5C;}
	.st19{fill:#FAE6CA;}
	.st20{fill:#F8E4C8;}
	.st21{fill:#8AC5DC;}
	.st22{fill:#EF6D7A;}
	.st23{fill:#EB6E7A;}
	.st24{fill:#89C4DB;}
	.st25{fill-rule:evenodd;clip-rule:evenodd;fill:#F16C7A;}
	.st26{fill:#F7E3C7;}
	.st27{fill:#F6E2C6;}
	.st28{fill:#ED6E7A;}
	.st29{fill:#8AC3DA;}
	.st30{fill:#D5DC57;}
	.st31{fill-rule:evenodd;clip-rule:evenodd;fill:#D7E057;}
	.st32{fill-rule:evenodd;clip-rule:evenodd;fill:#F8E4C8;}
	.st33{fill:#D4DB56;}
	.st34{fill:#F59689;}
	.st35{fill:#DDC9AC;}
	.st36{fill:#D24E5C;}
	.st37{fill:#6A5C52;}
	.st38{fill:#6CA6BE;}
	.st39{fill:#B8C136;}
	.st40{fill-rule:evenodd;clip-rule:evenodd;fill:#FAE6CA;}
</style>
<g id="Layer_2" class="st0">
	<g class="st1">
		<g>
			<line class="st2" x1="0" y1="4.829" x2="256" y2="4.829"/>
			<line class="st2" x1="0" y1="16.56" x2="256" y2="16.56"/>
			<line class="st2" x1="0" y1="28.29" x2="256" y2="28.29"/>
			<line class="st2" x1="0" y1="40.021" x2="256" y2="40.021"/>
			<line class="st2" x1="0" y1="51.751" x2="256" y2="51.751"/>
			<line class="st2" x1="0" y1="63.482" x2="256" y2="63.482"/>
			<line class="st2" x1="0" y1="75.213" x2="256" y2="75.213"/>
			<line class="st2" x1="0" y1="86.943" x2="256" y2="86.943"/>
			<line class="st2" x1="0" y1="98.674" x2="256" y2="98.674"/>
			<line class="st2" x1="0" y1="110.404" x2="256" y2="110.404"/>
			<line class="st2" x1="0" y1="122.135" x2="256" y2="122.135"/>
			<line class="st2" x1="0" y1="133.865" x2="256" y2="133.865"/>
			<line class="st2" x1="0" y1="145.596" x2="256" y2="145.596"/>
			<line class="st2" x1="0" y1="157.326" x2="256" y2="157.326"/>
			<line class="st2" x1="0" y1="169.057" x2="256" y2="169.057"/>
			<line class="st2" x1="0" y1="180.788" x2="256" y2="180.788"/>
			<line class="st2" x1="0" y1="192.518" x2="256" y2="192.518"/>
			<line class="st2" x1="0" y1="204.249" x2="256" y2="204.249"/>
			<line class="st2" x1="0" y1="215.979" x2="256" y2="215.979"/>
			<line class="st2" x1="0" y1="227.71" x2="256" y2="227.71"/>
			<line class="st2" x1="0" y1="239.44" x2="256" y2="239.44"/>
			<line class="st2" x1="0" y1="251.171" x2="256" y2="251.171"/>
		</g>
		<g>
			<line class="st2" x1="251.171" y1="0" x2="251.171" y2="256"/>
			<line class="st2" x1="239.44" y1="0" x2="239.44" y2="256"/>
			<line class="st2" x1="227.71" y1="0" x2="227.71" y2="256"/>
			<line class="st2" x1="215.979" y1="0" x2="215.979" y2="256"/>
			<line class="st2" x1="204.249" y1="0" x2="204.249" y2="256"/>
			<line class="st2" x1="192.518" y1="0" x2="192.518" y2="256"/>
			<line class="st2" x1="180.787" y1="0" x2="180.787" y2="256"/>
			<line class="st2" x1="169.057" y1="0" x2="169.057" y2="256"/>
			<line class="st2" x1="157.326" y1="0" x2="157.326" y2="256"/>
			<line class="st2" x1="145.596" y1="0" x2="145.596" y2="256"/>
			<line class="st2" x1="133.865" y1="0" x2="133.865" y2="256"/>
			<line class="st2" x1="122.135" y1="0" x2="122.135" y2="256"/>
			<line class="st2" x1="110.404" y1="0" x2="110.404" y2="256"/>
			<line class="st2" x1="98.674" y1="0" x2="98.674" y2="256"/>
			<line class="st2" x1="86.943" y1="0" x2="86.943" y2="256"/>
			<line class="st2" x1="75.212" y1="0" x2="75.212" y2="256"/>
			<line class="st2" x1="63.482" y1="0" x2="63.482" y2="256"/>
			<line class="st2" x1="51.751" y1="0" x2="51.751" y2="256"/>
			<line class="st2" x1="40.021" y1="0" x2="40.021" y2="256"/>
			<line class="st2" x1="28.29" y1="0" x2="28.29" y2="256"/>
			<line class="st2" x1="16.56" y1="0" x2="16.56" y2="256"/>
			<line class="st2" x1="4.829" y1="0" x2="4.829" y2="256"/>
		</g>
	</g>
</g>
<g id="Layer_1">
	<g>
		<path class="st14" d="M238.849,90.521c-35.613-14.752-75.628-14.752-111.241,0c0,49.689,0,99.377,0,149.065
			c35.613-14.752,75.628-14.752,111.241,0C238.849,189.898,238.849,140.21,238.849,90.521z"/>
		<path class="st3" d="M238.85,241.087c-0.194,0-0.389-0.038-0.574-0.114c-35.498-14.703-74.597-14.703-110.093,0
			c-0.464,0.192-0.991,0.14-1.408-0.139c-0.416-0.278-0.666-0.746-0.666-1.247V90.521c0-0.607,0.365-1.154,0.926-1.386
			c36.238-15.01,76.152-15.011,112.39,0c0.561,0.232,0.926,0.779,0.926,1.386v149.065c0,0.501-0.25,0.969-0.667,1.247
			C239.433,241.001,239.142,241.087,238.85,241.087z M183.229,226.943c18.312,0,36.625,3.472,54.121,10.416V91.527
			c-34.944-14.198-73.299-14.198-108.242,0V237.36C146.603,230.415,164.916,226.943,183.229,226.943z"/>
		<path class="st14" d="M16.364,158.108v81.479c35.613-14.752,75.628-14.752,111.241,0V90.521
			c-35.613-14.752-75.628-14.752-111.241,0v54.33V158.108z"/>
		<path class="st3" d="M127.605,241.087c-0.194,0-0.389-0.038-0.574-0.114c-35.497-14.703-74.596-14.703-110.093,0
			c-0.464,0.192-0.991,0.14-1.408-0.139c-0.417-0.278-0.667-0.746-0.667-1.247v-81.479c0-0.829,0.671-1.5,1.5-1.5s1.5,0.671,1.5,1.5
			v79.251c34.989-13.889,73.252-13.889,108.241,0V91.527c-34.942-14.198-73.299-14.198-108.241,0v53.324c0,0.829-0.671,1.5-1.5,1.5
			s-1.5-0.671-1.5-1.5v-54.33c0-0.607,0.365-1.154,0.926-1.386c36.238-15.01,76.151-15.01,112.39,0
			c0.561,0.232,0.926,0.779,0.926,1.386v149.065c0,0.501-0.25,0.969-0.667,1.247C128.188,241.001,127.897,241.087,127.605,241.087z"
			/>
		<path class="st3" d="M114.785,213.012c-0.146,0-0.295-0.021-0.442-0.067c-27.718-8.549-57.012-8.548-84.716,0
			c-0.792,0.246-1.631-0.2-1.875-0.991c-0.245-0.792,0.199-1.631,0.991-1.876c28.282-8.727,58.188-8.727,86.484,0
			c0.792,0.244,1.236,1.084,0.992,1.875C116.019,212.598,115.425,213.012,114.785,213.012z"/>
		<path class="st3" d="M141.016,212.818c-0.643,0-1.238-0.417-1.435-1.064c-0.241-0.793,0.207-1.63,0.999-1.871
			c27.817-8.453,57.24-8.471,85.089-0.056c0.793,0.24,1.241,1.077,1.002,1.87c-0.241,0.793-1.076,1.239-1.87,1.002
			c-27.279-8.244-56.101-8.224-83.349,0.054C141.307,212.797,141.161,212.818,141.016,212.818z"/>
		<path class="st3" d="M29.184,192.302c-0.641,0-1.234-0.414-1.433-1.058c-0.245-0.792,0.199-1.631,0.991-1.876
			c28.282-8.728,58.188-8.727,86.484,0c0.792,0.244,1.236,1.084,0.992,1.875c-0.244,0.792-1.084,1.236-1.875,0.992
			c-27.718-8.549-57.012-8.548-84.716,0C29.479,192.28,29.33,192.302,29.184,192.302z"/>
		<path class="st3" d="M141.016,192.108c-0.643,0-1.238-0.417-1.435-1.064c-0.241-0.792,0.207-1.63,0.999-1.871
			c27.817-8.451,57.24-8.47,85.089-0.056c0.793,0.24,1.241,1.077,1.002,1.87c-0.24,0.792-1.076,1.239-1.87,1.002
			c-27.279-8.243-56.101-8.223-83.349,0.054C141.307,192.087,141.161,192.108,141.016,192.108z"/>
		<path class="st3" d="M114.785,171.592c-0.146,0-0.295-0.021-0.442-0.067c-27.718-8.549-57.012-8.548-84.716-0.001
			c-0.792,0.245-1.631-0.199-1.875-0.991c-0.245-0.791,0.199-1.631,0.991-1.875c28.282-8.728,58.188-8.727,86.484-0.001
			c0.792,0.244,1.236,1.084,0.992,1.876C116.019,171.178,115.425,171.592,114.785,171.592z"/>
		<path class="st3" d="M141.016,171.399c-0.644,0-1.238-0.417-1.435-1.064c-0.241-0.792,0.207-1.63,0.999-1.871
			c27.817-8.453,57.24-8.471,85.089-0.056c0.793,0.24,1.241,1.077,1.002,1.87c-0.241,0.792-1.076,1.24-1.87,1.002
			c-27.278-8.243-56.101-8.224-83.349,0.054C141.307,171.378,141.161,171.399,141.016,171.399z"/>
		<path class="st3" d="M114.785,150.883c-0.146,0-0.295-0.021-0.442-0.067c-27.718-8.549-57.012-8.548-84.716-0.001
			c-0.792,0.246-1.631-0.199-1.875-0.991c-0.245-0.792,0.199-1.631,0.991-1.876c28.282-8.728,58.188-8.727,86.484-0.001
			c0.792,0.244,1.236,1.084,0.992,1.876C116.019,150.469,115.425,150.883,114.785,150.883z"/>
		<path class="st3" d="M141.016,150.689c-0.643,0-1.238-0.417-1.435-1.064c-0.241-0.792,0.207-1.63,0.999-1.871
			c27.817-8.452,57.24-8.471,85.089-0.056c0.793,0.24,1.241,1.077,1.002,1.87c-0.241,0.792-1.076,1.239-1.87,1.002
			c-27.279-8.244-56.101-8.224-83.349,0.054C141.307,150.669,141.161,150.689,141.016,150.689z"/>
		<path class="st3" d="M114.785,130.173c-0.146,0-0.295-0.021-0.442-0.067c-27.718-8.549-57.012-8.548-84.716-0.001
			c-0.792,0.244-1.631-0.199-1.875-0.991c-0.245-0.792,0.199-1.631,0.991-1.875c28.282-8.728,58.188-8.727,86.484-0.001
			c0.792,0.244,1.236,1.084,0.992,1.876C116.019,129.759,115.425,130.173,114.785,130.173z"/>
		<path class="st3" d="M141.016,129.98c-0.643,0-1.238-0.417-1.435-1.065c-0.241-0.792,0.207-1.63,0.999-1.871
			c27.817-8.453,57.24-8.472,85.089-0.056c0.793,0.24,1.241,1.077,1.002,1.87c-0.241,0.792-1.076,1.239-1.87,1.002
			c-27.278-8.243-56.101-8.224-83.349,0.054C141.307,129.958,141.161,129.98,141.016,129.98z"/>
		<path class="st3" d="M114.785,109.463c-0.146,0-0.295-0.021-0.442-0.067c-27.718-8.549-57.012-8.548-84.716,0
			c-0.792,0.245-1.631-0.199-1.875-0.991c-0.245-0.791,0.199-1.631,0.991-1.875c28.282-8.728,58.188-8.727,86.484-0.001
			c0.792,0.244,1.236,1.084,0.992,1.876C116.019,109.049,115.425,109.463,114.785,109.463z"/>
		<path class="st3" d="M141.016,109.27c-0.643,0-1.238-0.417-1.435-1.064c-0.241-0.792,0.207-1.63,0.999-1.871
			c27.817-8.453,57.24-8.471,85.089-0.056c0.793,0.24,1.241,1.077,1.002,1.87c-0.241,0.792-1.076,1.24-1.87,1.002
			c-27.279-8.243-56.101-8.224-83.349,0.054C141.307,109.249,141.161,109.27,141.016,109.27z"/>
		<path class="st14" d="M47.652,26.441c0,0,3.408,12.659,13.222,13.246c0,0-13.1,4.525-13.321,14.202
			c0,0-2.579-13.572-12.925-14.059C34.627,39.83,46.678,38.005,47.652,26.441z"/>
		<path class="st3" d="M47.551,55.389c-0.713,0-1.335-0.506-1.472-1.217c-0.024-0.124-2.495-12.417-11.522-12.842
			c-0.771-0.037-1.388-0.651-1.428-1.421c-0.04-0.771,0.511-1.445,1.273-1.561c0.441-0.069,10.894-1.818,11.754-12.033
			c0.061-0.725,0.634-1.301,1.359-1.367c0.732-0.057,1.393,0.399,1.583,1.101c0.032,0.116,3.259,11.626,11.864,12.141
			c0.714,0.043,1.297,0.584,1.396,1.292c0.098,0.708-0.319,1.388-0.994,1.623c-0.121,0.042-12.119,4.31-12.313,12.819
			c-0.018,0.767-0.61,1.396-1.375,1.459C47.635,55.387,47.593,55.389,47.551,55.389z M39.81,39.659
			c3.878,1.969,6.23,5.746,7.587,8.876c2.026-4.021,5.941-6.787,8.949-8.427c-4.134-1.842-6.783-5.652-8.334-8.723
			C46.219,35.746,42.741,38.254,39.81,39.659z"/>
		<path class="st14" d="M25.953,43.421c0,0,2.411,8.954,9.352,9.369c0,0-9.266,3.201-9.422,10.046c0,0-1.824-9.6-9.142-9.944
			C16.74,52.892,25.264,51.601,25.953,43.421z"/>
		<path class="st3" d="M25.881,64.336c-0.713,0-1.337-0.507-1.472-1.22c-0.016-0.082-1.704-8.442-7.739-8.726
			c-0.77-0.037-1.388-0.651-1.428-1.421c-0.04-0.771,0.511-1.445,1.273-1.561c0.296-0.047,7.364-1.243,7.942-8.114
			c0.061-0.726,0.635-1.303,1.36-1.368c0.727-0.067,1.392,0.399,1.582,1.102l0,0c0.021,0.079,2.227,7.92,7.994,8.265
			c0.714,0.043,1.299,0.584,1.396,1.293c0.098,0.709-0.32,1.388-0.996,1.622c-0.081,0.028-8.282,2.952-8.413,8.662
			c-0.017,0.767-0.611,1.397-1.376,1.461C25.964,64.335,25.922,64.336,25.881,64.336z M21.363,52.809
			c2.107,1.333,3.523,3.394,4.447,5.28c1.376-2.232,3.515-3.872,5.365-4.972c-2.287-1.27-3.884-3.35-4.941-5.224
			C25.06,50.179,23.218,51.768,21.363,52.809z"/>
		<path class="st14" d="M25.953,16.764c0,0,2.411,8.954,9.352,9.369c0,0-9.266,3.201-9.422,10.045c0,0-1.824-9.6-9.142-9.944
			C16.74,26.235,25.264,24.943,25.953,16.764z"/>
		<path class="st3" d="M25.881,37.679c-0.713,0-1.337-0.507-1.472-1.22c-0.016-0.082-1.704-8.441-7.739-8.726
			c-0.77-0.037-1.387-0.651-1.427-1.421c-0.04-0.771,0.511-1.445,1.273-1.561c0.296-0.047,7.364-1.243,7.942-8.113
			c0.061-0.726,0.635-1.303,1.36-1.368c0.726-0.064,1.392,0.401,1.583,1.103c0.042,0.15,2.254,7.92,7.994,8.263
			c0.714,0.043,1.299,0.584,1.396,1.293c0.098,0.709-0.32,1.388-0.996,1.622c-0.081,0.028-8.282,2.952-8.413,8.662
			c-0.017,0.767-0.611,1.398-1.376,1.461C25.964,37.677,25.922,37.679,25.881,37.679z M21.362,26.151
			c2.107,1.333,3.523,3.394,4.447,5.279c1.376-2.233,3.515-3.872,5.365-4.972c-2.287-1.269-3.884-3.35-4.941-5.224
			C25.06,23.521,23.218,25.11,21.362,26.151z"/>
		<path class="st7" d="M182.716,239.653v-22.537c0-13.736-11.133-24.869-24.869-24.869h-16.431v-10.678
			c-4.545,3.151-9.247,5.009-13.81,5.009c-4.377,0-8.996-1.877-13.522-5.065h-0.279v10.734h-16.44
			c-13.735,0-24.869,11.133-24.869,24.869v22.537H182.716z"/>
		<path class="st3" d="M182.716,241.153H72.497c-0.829,0-1.5-0.671-1.5-1.5v-22.537c0-14.54,11.829-26.369,26.369-26.369h14.941
			v-9.234c0-0.829,0.671-1.5,1.5-1.5h0.279c0.309,0,0.611,0.096,0.864,0.274c4.514,3.179,8.772,4.791,12.658,4.791
			c4.058,0,8.417-1.596,12.956-4.743c0.459-0.318,1.056-0.354,1.55-0.096c0.494,0.259,0.804,0.771,0.804,1.329v9.179h14.931
			c14.54,0,26.369,11.829,26.369,26.369v22.537C184.216,240.481,183.545,241.153,182.716,241.153z M73.997,238.153h107.22v-21.037
			c0-12.886-10.483-23.369-23.369-23.369h-16.431c-0.829,0-1.5-0.671-1.5-1.5v-7.934c-4.229,2.5-8.36,3.765-12.31,3.765
			c-3.889,0-8.017-1.331-12.3-3.964v8.133c0,0.829-0.671,1.5-1.5,1.5H97.365c-12.886,0-23.369,10.483-23.369,23.369V238.153z"/>
		<path class="st9" d="M182.717,239.655v-22.546c0-13.736-11.133-24.869-24.869-24.869h-3.931l0.102,0.075l-17.091,22.667
			l-8.819-6.645l-8.819,6.645l-17.091-22.667l0.102-0.075h-4.935c-13.736,0-24.869,11.134-24.869,24.869v22.546H182.717z"/>
		<path class="st3" d="M182.717,241.155H72.497c-0.829,0-1.5-0.671-1.5-1.5v-22.546c0-14.54,11.829-26.37,26.369-26.37h4.935
			c0.649,0,1.224,0.417,1.426,1.034c0.013,0.04,0.024,0.081,0.034,0.121l15.824,20.987l7.622-5.743c0.535-0.402,1.271-0.402,1.806,0
			l7.622,5.743l15.823-20.986c0.01-0.04,0.021-0.08,0.034-0.12c0.201-0.618,0.777-1.036,1.426-1.036h3.931
			c14.54,0,26.37,11.829,26.37,26.37v22.546C184.217,240.483,183.545,241.155,182.717,241.155z M73.997,238.155h107.22v-21.046
			c0-12.886-10.483-23.37-23.37-23.37h-3.025l-16.697,22.144c-0.499,0.662-1.439,0.793-2.101,0.295l-7.916-5.965l-7.917,5.965
			c-0.662,0.498-1.602,0.366-2.101-0.295l-16.696-22.144h-4.029c-12.886,0-23.369,10.483-23.369,23.37V238.155z"/>
		<path class="st12" d="M94.688,130.598c0,5.404-4.381,9.785-9.785,9.785c-5.405,0-9.785-4.381-9.785-9.785
			c0-5.405,4.381-9.786,9.785-9.786C90.307,120.812,94.688,125.193,94.688,130.598z"/>
		<path class="st3" d="M84.903,141.883c-6.223,0-11.286-5.062-11.286-11.286c0-6.223,5.062-11.285,11.286-11.285
			c6.223,0,11.286,5.062,11.286,11.285C96.188,136.821,91.126,141.883,84.903,141.883z M84.903,122.312
			c-4.569,0-8.286,3.717-8.286,8.285c0,4.569,3.717,8.286,8.286,8.286c4.569,0,8.286-3.717,8.286-8.286
			C93.188,126.029,89.472,122.312,84.903,122.312z"/>
		<path class="st12" d="M180.098,130.598c0,5.404-4.381,9.785-9.785,9.785s-9.785-4.381-9.785-9.785
			c0-5.405,4.381-9.786,9.785-9.786S180.098,125.193,180.098,130.598z"/>
		<path class="st3" d="M170.313,141.883c-6.223,0-11.286-5.062-11.286-11.286c0-6.223,5.062-11.285,11.286-11.285
			c6.223,0,11.285,5.062,11.285,11.285C181.598,136.821,176.536,141.883,170.313,141.883z M170.313,122.312
			c-4.569,0-8.286,3.717-8.286,8.285c0,4.569,3.717,8.286,8.286,8.286c4.568,0,8.285-3.717,8.285-8.286
			C178.598,126.029,174.881,122.312,170.313,122.312z"/>
		<path class="st7" d="M170.988,125.848c0,23.958-23.074,60.732-43.38,60.732c-19.383,0-43.38-36.774-43.38-60.732
			c0-23.958,19.422-43.38,43.38-43.38C151.566,82.468,170.988,101.89,170.988,125.848z"/>
		<path class="st3" d="M127.608,188.08c-9.374,0-20.661-8.235-30.193-22.029c-9.059-13.111-14.687-28.516-14.687-40.203
			c0-24.747,20.133-44.88,44.88-44.88s44.88,20.133,44.88,44.88c0,11.819-5.493,27.221-14.335,40.195
			C148.607,180.047,137.475,188.08,127.608,188.08z M127.608,83.968c-23.093,0-41.88,18.787-41.88,41.88
			c0,11.11,5.424,25.862,14.155,38.497c8.971,12.983,19.336,20.734,27.725,20.734c8.729,0,19.22-7.748,28.065-20.727
			c8.521-12.503,13.814-27.257,13.814-38.505C169.488,102.755,150.701,83.968,127.608,83.968z"/>
		<circle class="st3" cx="112.292" cy="125.358" r="4.234"/>
		<path class="st3" d="M147.157,125.358c0,2.338-1.896,4.234-4.234,4.234c-2.339,0-4.234-1.896-4.234-4.234
			c0-2.338,1.896-4.234,4.234-4.234C145.262,121.124,147.157,123.02,147.157,125.358z"/>
		<path class="st13" d="M111.124,137.946c0,3.011-3.266,5.453-7.294,5.453c-4.028,0-7.294-2.441-7.294-5.453
			c0-3.011,3.266-5.452,7.294-5.452C107.858,132.493,111.124,134.935,111.124,137.946z"/>
		<path class="st13" d="M158.679,137.946c0,3.011-3.265,5.453-7.294,5.453c-4.028,0-7.294-2.441-7.294-5.453
			c0-3.011,3.266-5.452,7.294-5.452C155.414,132.493,158.679,134.935,158.679,137.946z"/>
		<path class="st4" d="M128.108,72.894c-24.797,0-44.9,19.219-44.9,42.928c0,2.509,0.454,4.379,1.298,6.715
			c0.397,1.101,6.827-2.416,7.374-2.801c2.738-1.927,4.975-4.54,6.647-7.428c0.691-1.201,1.268-2.423,1.732-3.645
			c1.48-3.899,5.501-14.75,9.584-13.899c5.475,1.141,11.681,1.786,18.265,1.786c6.583,0,12.789-0.645,18.265-1.786
			c4.083-0.851,8.104,9.999,9.584,13.899c0.464,1.222,1.04,2.444,1.732,3.645c2.762,4.778,7.428,9.326,13.103,10.154
			c0.014-0.274,0.36-0.368,0.618-0.461c1.858-0.675,1.597-4.689,1.597-6.179C173.008,92.113,152.906,72.894,128.108,72.894z"/>
		<path class="st3" d="M84.88,124.23c-0.229,0-0.437-0.026-0.617-0.083c-0.552-0.174-0.978-0.575-1.167-1.102
			c-0.856-2.371-1.387-4.406-1.387-7.224c0-24.498,20.815-44.428,46.4-44.428s46.4,19.93,46.4,44.427l0.005,0.48
			c0.031,2.132,0.089,6.09-2.545,7.091c-0.066,0.083-0.141,0.16-0.224,0.228c-0.326,0.267-0.75,0.386-1.168,0.325
			c-5.396-0.787-10.699-4.857-14.186-10.888c-0.72-1.251-1.337-2.55-1.835-3.864l-0.092-0.243
			c-4.547-11.997-6.957-12.893-7.784-12.72c-5.789,1.206-12.037,1.818-18.571,1.818c-6.534,0-12.782-0.612-18.571-1.818
			c-0.824-0.172-3.236,0.722-7.782,12.715l-0.094,0.248c-0.498,1.313-1.115,2.613-1.834,3.862c-1.867,3.225-4.315,5.957-7.083,7.906
			C92.691,120.998,87.435,124.23,84.88,124.23z M128.108,74.394c-23.931,0-43.4,18.584-43.4,41.428c0,2.037,0.321,3.568,0.89,5.286
			c1.536-0.493,4.721-2.132,5.426-2.604c2.408-1.695,4.557-4.1,6.205-6.948c0.638-1.108,1.186-2.261,1.628-3.426l0.094-0.247
			c3.087-8.145,6.57-15.55,11.199-14.588c5.587,1.165,11.63,1.755,17.959,1.755c6.328,0,12.371-0.59,17.958-1.755
			c4.616-0.971,8.113,6.445,11.202,14.594l0.091,0.241c0.442,1.165,0.99,2.319,1.629,3.429c2.871,4.966,7.056,8.388,11.312,9.291
			c0.16-0.09,0.339-0.169,0.536-0.239c0.174-0.062,0.731-0.459,0.676-4.266l-0.005-0.524
			C171.508,92.978,152.039,74.394,128.108,74.394z"/>
		
			<rect x="109.629" y="186.115" transform="matrix(0.7986 -0.6019 0.6019 0.7986 -97.3617 109.6601)" class="st4" width="11.09" height="28.387"/>
		<path class="st3" d="M119.289,216.48c-0.455,0-0.904-0.206-1.199-0.597l-17.085-22.67c-0.499-0.662-0.367-1.602,0.295-2.101
			l8.856-6.674c0.317-0.24,0.719-0.342,1.111-0.288c0.394,0.055,0.75,0.265,0.989,0.582l17.085,22.67
			c0.24,0.318,0.343,0.718,0.288,1.111c-0.055,0.394-0.265,0.75-0.583,0.989l-8.856,6.674
			C119.92,216.382,119.603,216.48,119.289,216.48z M104.304,192.605l15.279,20.275l6.461-4.869l-15.28-20.275L104.304,192.605z"/>
		
			<rect x="135.498" y="186.115" transform="matrix(-0.7986 -0.6019 0.6019 -0.7986 133.1217 445.1629)" class="st4" width="11.09" height="28.387"/>
		<path class="st3" d="M136.928,216.48c-0.314,0-0.631-0.098-0.902-0.302l-8.857-6.674c-0.318-0.239-0.527-0.595-0.582-0.989
			c-0.055-0.394,0.048-0.793,0.288-1.111l17.086-22.67c0.239-0.318,0.595-0.527,0.989-0.582c0.393-0.055,0.794,0.048,1.111,0.288
			l8.856,6.674c0.662,0.498,0.794,1.439,0.295,2.101l-17.085,22.67C137.832,216.274,137.382,216.48,136.928,216.48z
			 M130.173,208.011l6.461,4.869l15.279-20.275l-6.46-4.869L130.173,208.011z"/>
		<path class="st3" d="M93.142,241.155c-0.829,0-1.5-0.671-1.5-1.5v-17.812c0-0.829,0.671-1.5,1.5-1.5c0.829,0,1.5,0.671,1.5,1.5
			v17.812C94.642,240.483,93.971,241.155,93.142,241.155z"/>
		<path class="st4" d="M90.912,81.318c7.363,9.272,16.172,19.158,26.811,22.182c17.135,4.872,47.464-1.206,47.464-25.869
			c0-15.771-13.219-34.832-37.889-20.319c-30.579,17.99-48.329-16.592-48.329-0.821c0,4.985,2.008,9.957,4.645,14.481L90.912,81.318
			z"/>
		<path class="st3" d="M129.721,106.546c-4.494,0-8.77-0.568-12.409-1.603c-10.845-3.084-19.663-12.729-27.575-22.693
			c-0.018-0.022-0.035-0.045-0.051-0.068l-7.298-10.346c-0.025-0.036-0.048-0.072-0.07-0.109
			c-3.263-5.599-4.849-10.583-4.849-15.236c0-1.979,0.221-4.376,1.947-5.354c2.05-1.164,4.583,0.357,8.416,2.656
			c7.869,4.72,21.04,12.618,38.705,2.225c13.112-7.713,22.186-5.715,27.492-2.681c8.744,5,12.657,15.804,12.657,24.293
			c0,8.597-3.593,15.854-10.391,20.989C148.923,104.189,138.873,106.546,129.721,106.546z M92.113,80.419
			c7.594,9.559,16.002,18.79,26.02,21.639c10.339,2.939,26.146,1.879,36.354-5.831c6.104-4.611,9.2-10.867,9.2-18.595
			c0-7.623-3.447-17.285-11.147-21.689c-6.62-3.786-15.085-2.865-24.481,2.663c-19.203,11.296-33.882,2.491-41.769-2.238
			c-1.992-1.195-4.708-2.834-5.407-2.613c0.009,0.001-0.413,0.428-0.413,2.737c0,4.093,1.442,8.565,4.408,13.669L92.113,80.419z"/>
		<path class="st3" d="M127.606,162.535c-6.225,0-10.714-2.798-13.341-8.316c-0.356-0.748-0.038-1.643,0.71-1.999
			c0.75-0.355,1.643-0.038,1.999,0.71c2.116,4.445,5.594,6.605,10.632,6.605c6.448,0,9.741-4.243,10.582-6.486
			c0.29-0.776,1.154-1.171,1.931-0.879c0.776,0.291,1.169,1.155,0.879,1.931C139.476,158.163,134.637,162.535,127.606,162.535z"/>
		<path class="st3" d="M163.075,241.155c-0.829,0-1.5-0.671-1.5-1.5v-17.812c0-0.829,0.671-1.5,1.5-1.5s1.5,0.671,1.5,1.5v17.812
			C164.575,240.483,163.903,241.155,163.075,241.155z"/>
		
			<ellipse transform="matrix(0.7071 -0.7071 0.7071 0.7071 23.2293 159.5725)" class="st8" cx="204.236" cy="51.746" rx="35.401" ry="35.401"/>
		<path class="st3" d="M204.236,88.646c-20.347,0-36.901-16.553-36.901-36.9s16.554-36.901,36.901-36.901
			c20.347,0,36.9,16.554,36.9,36.901S224.583,88.646,204.236,88.646z M204.236,17.845c-18.693,0-33.901,15.208-33.901,33.901
			s15.208,33.9,33.901,33.9c18.693,0,33.9-15.207,33.9-33.9S222.929,17.845,204.236,17.845z"/>
		<path class="st26" d="M184.606,59.113c-0.029,0-0.055-0.004-0.083-0.004v12.114c0,2.831,2.292,5.122,5.122,5.122h29.18
			c2.831,0,5.123-2.291,5.123-5.122v-31.27l-12.806-12.806h-21.496c-2.831,0-5.122,2.291-5.122,5.123v13.582
			c0.028,0,0.055-0.004,0.083-0.004V59.113z"/>
		<path class="st3" d="M218.826,77.845h-29.18c-3.652,0-6.623-2.971-6.623-6.622V59.108c0-0.402,0.162-0.788,0.449-1.07
			c0.288-0.282,0.682-0.435,1.077-0.43c0.029,0,0.098,0.004,0.127,0.006c0.829,0,1.465,0.671,1.465,1.499
			c0,0.203-0.042,0.396-0.118,0.571v11.538c0,1.997,1.625,3.622,3.623,3.622h29.18c1.998,0,3.623-1.625,3.623-3.622V40.574
			L210.52,28.646h-20.874c-1.998,0-3.623,1.625-3.623,3.623v13.085c0.054,0.154,0.083,0.32,0.083,0.493
			c0,0.837-0.686,1.497-1.526,1.5c-0.394,0-0.799-0.152-1.08-0.428c-0.287-0.282-0.477-0.666-0.477-1.068V32.269
			c0-3.652,2.971-6.623,6.623-6.623h21.496c0.398,0,0.779,0.158,1.061,0.439l12.807,12.807c0.281,0.281,0.439,0.663,0.439,1.06
			v31.27C225.448,74.874,222.477,77.845,218.826,77.845z"/>
		<path class="st3" d="M216.703,41.491h-24.935c-0.829,0-1.5-0.671-1.5-1.5c0-0.829,0.671-1.5,1.5-1.5h24.935
			c0.829,0,1.5,0.671,1.5,1.5C218.203,40.82,217.532,41.491,216.703,41.491z"/>
		<path class="st3" d="M216.703,53.717h-24.935c-0.829,0-1.5-0.671-1.5-1.5c0-0.829,0.671-1.5,1.5-1.5h24.935
			c0.829,0,1.5,0.671,1.5,1.5C218.203,53.046,217.532,53.717,216.703,53.717z"/>
		<path class="st3" d="M216.703,65.943h-24.935c-0.829,0-1.5-0.671-1.5-1.5c0-0.829,0.671-1.5,1.5-1.5h24.935
			c0.829,0,1.5,0.671,1.5,1.5C218.203,65.272,217.532,65.943,216.703,65.943z"/>
		<path class="st26" d="M223.948,39.953v0.032h-8.27c-2.491,0-4.51-2.019-4.51-4.51v-8.302L223.948,39.953z"/>
		<path class="st3" d="M223.948,41.485h-8.27c-3.314,0-6.01-2.696-6.01-6.01v-8.301c0-0.606,0.365-1.154,0.926-1.386
			c0.562-0.233,1.206-0.104,1.635,0.325l12.78,12.78c0.281,0.281,0.439,0.663,0.439,1.06v0.032
			C225.448,40.813,224.777,41.485,223.948,41.485z M212.668,30.794v4.68c0,1.66,1.351,3.01,3.01,3.01h4.68L212.668,30.794z"/>
		<path class="st17" d="M237.346,91.527v145.83c-4.94-1.96-9.95-3.65-15-5.04v-20.34c0.82,0.23,1.64,0.47,2.46,0.72
			c0.79,0.24,1.62-0.21,1.87-1c0.23-0.79-0.21-1.63-1.01-1.87c-1.1-0.33-2.21-0.65-3.32-0.96v-17.6c0.82,0.23,1.64,0.47,2.46,0.72
			c0.79,0.24,1.62-0.21,1.87-1c0.23-0.79-0.21-1.63-1.01-1.87c-1.1-0.33-2.21-0.65-3.32-0.95v-17.61c0.82,0.23,1.64,0.47,2.46,0.72
			c0.79,0.24,1.62-0.21,1.87-1c0.23-0.79-0.21-1.63-1.01-1.87c-1.1-0.33-2.21-0.65-3.32-0.95v-17.6c0.82,0.22,1.64,0.46,2.46,0.71
			c0.79,0.24,1.63-0.21,1.87-1c0.23-0.79-0.21-1.63-1.01-1.87c-1.1-0.33-2.21-0.65-3.32-0.95v-17.6c0.82,0.22,1.64,0.46,2.46,0.71
			c0.79,0.24,1.62-0.21,1.87-1c0.23-0.79-0.21-1.63-1.01-1.87c-1.1-0.33-2.21-0.65-3.32-0.95v-17.6c0.82,0.22,1.64,0.46,2.46,0.71
			c0.79,0.24,1.63-0.21,1.87-1c0.23-0.79-0.21-1.63-1.01-1.87c-1.1-0.33-2.21-0.65-3.32-0.95v-7.13c0-4.097-2.586-7.756-6.452-9.112
			c-1.269-0.445-2.542-0.871-3.818-1.278c2.45-0.53,4.81-1.31,7.06-2.31C225.286,87.097,231.366,89.097,237.346,91.527z"/>
	</g>
</g>
</svg>
